<svg width="41" height="41" viewBox="0 0 41 41" fill="none" xmlns="http://www.w3.org/2000/svg">
<g clip-path="url(#clip0_3_397)">
<g clip-path="url(#clip1_3_397)">
<g clip-path="url(#clip2_3_397)">
<path d="M20.4 0.97998C9.35836 0.97998 0.400024 9.93831 0.400024 20.98C0.400024 32.0216 9.35836 40.98 20.4 40.98C31.4417 40.98 40.4 32.0216 40.4 20.98C40.4 9.93831 31.4417 0.97998 20.4 0.97998ZM25.1084 18.63L24.8667 21.7633H21.575V30.3966H18.05V21.7633H15.7V18.63H18.05V15.88C18.05 13.6633 19.45 11.5716 22.7584 11.5716C23.55 11.5716 24.3334 11.63 25.1084 11.7466L24.9834 14.705H22.95C21.7584 14.705 21.5834 15.3633 21.5834 16.28V18.63H25.1084Z" fill="white"/>
</g>
</g>
</g>
<defs>
<clipPath id="clip0_3_397">
<rect width="40" height="40" fill="white" transform="translate(0.400024 0.97998)"/>
</clipPath>
<clipPath id="clip1_3_397">
<rect width="40" height="40" fill="white" transform="translate(0.400024 0.97998)"/>
</clipPath>
<clipPath id="clip2_3_397">
<rect width="40" height="40" fill="white" transform="translate(0.400024 0.97998)"/>
</clipPath>
</defs>
</svg>
