<svg width="40" height="41" viewBox="0 0 40 41" fill="none" xmlns="http://www.w3.org/2000/svg">
<g clip-path="url(#clip0_3_411)">
<g clip-path="url(#clip1_3_411)">
<g clip-path="url(#clip2_3_411)">
<path d="M20.2834 18.1133C18.4667 18.1133 16.9917 19.5883 16.9917 21.4049C16.9917 23.2216 18.4667 24.6966 20.2834 24.6966C22.1 24.6966 23.575 23.2216 23.575 21.4049C23.5834 19.5883 22.1084 18.1133 20.2834 18.1133Z" fill="white"/>
<path d="M20.2834 1.25488C9.24169 1.25488 0.283356 10.2132 0.283356 21.2549C0.283356 32.2965 9.24169 41.2549 20.2834 41.2549C31.325 41.2549 40.2834 32.2965 40.2834 21.2549C40.2834 10.2132 31.3334 1.25488 20.2834 1.25488ZM29.6917 22.1132C29.6917 23.8965 29.675 24.2549 29.6334 25.1299C29.6167 25.9132 29.4667 26.6799 29.1917 27.4132C28.9584 28.0382 28.5834 28.6132 28.1084 29.0799C27.6417 29.5549 27.0667 29.9299 26.4417 30.1632C25.7084 30.4382 24.9334 30.5882 24.15 30.6049C23.325 30.6382 22.9584 30.6632 21.4334 30.6632H19.4167C17.6334 30.6632 17.275 30.6465 16.4 30.6049C15.6167 30.5882 14.85 30.4465 14.1167 30.1715C13.4917 29.9382 12.9167 29.5632 12.45 29.0882C11.975 28.6215 11.6 28.0465 11.3667 27.4215C11.0917 26.6882 10.9417 25.9132 10.925 25.1382C10.8834 24.3049 10.8667 23.9382 10.8667 22.3632V20.1465C10.875 18.5715 10.8834 18.2049 10.925 17.3715C10.9417 16.5882 11.0917 15.8215 11.3667 15.0882C11.6 14.4632 11.975 13.8882 12.45 13.4215C12.9167 12.9465 13.4917 12.5715 14.1167 12.3382C14.85 12.0632 15.625 11.9132 16.4 11.8965C17.1834 11.8632 17.55 11.8465 18.875 11.8382H21.3834C22.9584 11.8465 23.325 11.8549 24.1584 11.8965C24.9417 11.9132 25.7084 12.0632 26.4417 12.3299C27.0667 12.5632 27.6417 12.9382 28.1084 13.4132C28.5834 13.8799 28.9584 14.4549 29.1917 15.0799C29.4667 15.8132 29.6167 16.5882 29.6334 17.3715C29.675 18.2465 29.6917 18.6049 29.6917 20.3882V22.1132Z" fill="white"/>
<path d="M27.4417 15.8383C27.2917 15.4383 27.0584 15.08 26.7584 14.78C26.4584 14.4716 26.1 14.2383 25.7 14.0966C25.15 13.8966 24.575 13.7883 23.9917 13.78C23.1584 13.7383 22.825 13.73 21.175 13.73H19.6834C17.7667 13.73 17.45 13.7466 16.5667 13.78C15.9834 13.7883 15.4084 13.8966 14.8584 14.0966C14.4584 14.2466 14.1 14.48 13.8 14.78C13.4917 15.08 13.2584 15.4383 13.1167 15.8383C12.9167 16.3883 12.8084 16.9633 12.8 17.5466C12.7667 18.33 12.75 18.6716 12.75 20.08V22.43C12.75 23.8383 12.7667 24.18 12.8 24.9633C12.8084 25.5466 12.9167 26.1216 13.1167 26.6716C13.2667 27.0716 13.5 27.43 13.8 27.73C14.1 28.0383 14.4584 28.2716 14.8584 28.4133C15.4084 28.6133 15.9834 28.7216 16.5667 28.73C17.3584 28.7633 17.6917 28.78 19.125 28.78H21.1334C22.8167 28.78 23.15 28.7633 23.9917 28.73C24.575 28.7216 25.15 28.6133 25.7 28.4133C26.1 28.2633 26.4584 28.03 26.7584 27.73C27.0667 27.43 27.3 27.0716 27.4417 26.6716C27.6417 26.1216 27.75 25.5466 27.7584 24.9633C27.7917 24.1716 27.8084 23.8383 27.8084 22.405V20.3966C27.8084 18.7133 27.7917 18.38 27.7584 17.5383C27.75 16.9633 27.65 16.38 27.4417 15.8383ZM20.2834 25.9633C17.6834 25.9633 15.575 23.855 15.575 21.255C15.575 18.655 17.6834 16.5466 20.2834 16.5466C22.8834 16.5466 24.9917 18.655 24.9917 21.255C24.9917 23.855 22.8834 25.9633 20.2834 25.9633ZM24.9917 17.4966C24.475 17.4966 24.05 17.0716 24.05 16.555C24.05 16.0383 24.475 15.6133 24.9917 15.6133C25.5084 15.6133 25.9334 16.0383 25.9334 16.555C25.9334 17.08 25.5084 17.4966 24.9917 17.4966Z" fill="white"/>
</g>
</g>
</g>
<defs>
<clipPath id="clip0_3_411">
<rect width="40" height="40" fill="white" transform="translate(3.05176e-05 0.97998)"/>
</clipPath>
<clipPath id="clip1_3_411">
<rect width="40" height="40" fill="white" transform="translate(3.05176e-05 0.97998)"/>
</clipPath>
<clipPath id="clip2_3_411">
<rect width="40" height="40" fill="white" transform="translate(3.05176e-05 0.97998)"/>
</clipPath>
</defs>
</svg>
