<svg width="41" height="41" viewBox="0 0 41 41" fill="none" xmlns="http://www.w3.org/2000/svg">
<g clip-path="url(#clip0_3_403)">
<g clip-path="url(#clip1_3_403)">
<g clip-path="url(#clip2_3_403)">
<path d="M17.675 26.2382L25.9084 21.2548L17.675 16.2715V26.2382Z" fill="white"/>
<path d="M20.9834 1.25488C9.9417 1.25488 0.983368 10.2132 0.983368 21.2549C0.983368 32.2965 9.9417 41.2549 20.9834 41.2549C32.025 41.2549 40.9834 32.2965 40.9834 21.2549C40.9834 10.2132 32.0334 1.25488 20.9834 1.25488ZM33.925 22.1382C33.9167 30.4799 33.525 30.6715 21.8 30.6715H20.1667C8.4417 30.6715 8.05837 30.4799 8.0417 22.1382V20.3715C8.05003 12.2215 8.42503 11.8549 19.3834 11.8465H22.5834C33.5417 11.8632 33.9084 12.2215 33.925 20.3715V22.1382Z" fill="white"/>
</g>
</g>
</g>
<defs>
<clipPath id="clip0_3_403">
<rect width="40" height="40" fill="white" transform="translate(0.700027 0.97998)"/>
</clipPath>
<clipPath id="clip1_3_403">
<rect width="40" height="40" fill="white" transform="translate(0.700027 0.97998)"/>
</clipPath>
<clipPath id="clip2_3_403">
<rect width="40" height="40" fill="white" transform="translate(0.700027 0.97998)"/>
</clipPath>
</defs>
</svg>
