<svg width="42" height="43" viewBox="0 0 42 43" fill="none" xmlns="http://www.w3.org/2000/svg">
<g clip-path="url(#clip0_3_606)">
<path d="M26.6278 19.3909C26.6278 15.35 23.293 12.06 19.1972 12.06C15.1013 12.06 11.76 15.35 11.76 19.3909C11.76 23.4318 15.0948 26.7282 19.1972 26.7282C23.2995 26.7282 26.6278 23.4382 26.6278 19.3909ZM19.1972 25.1373C15.985 25.1373 13.3726 22.56 13.3726 19.3909C13.3726 16.2218 15.985 13.6509 19.1972 13.6509C22.4094 13.6509 25.0153 16.2282 25.0153 19.3909C25.0153 22.5536 22.403 25.1373 19.1972 25.1373Z" fill="#3D3935"/>
<path d="M29.9884 29.1654L25.6345 25.1182C25.312 24.8191 24.8024 24.8318 24.4928 25.15C24.1897 25.4682 24.2026 25.9709 24.5251 26.2763L28.879 30.3236C29.0338 30.47 29.2338 30.54 29.4338 30.54C29.6466 30.54 29.8595 30.4573 30.0207 30.2918C30.3238 29.9673 30.311 29.4646 29.9884 29.1654Z" fill="#3D3935"/>
</g>
<defs>
<clipPath id="clip0_3_606">
<rect width="42" height="42" fill="white" transform="translate(0 0.300003)"/>
</clipPath>
</defs>
</svg>
