<svg width="200" height="161" viewBox="0 0 200 161" fill="none" xmlns="http://www.w3.org/2000/svg">
<g clip-path="url(#clip0_3_574)">
<g clip-path="url(#clip1_3_574)">
<path d="M80.4687 55.0882C94.7605 55.0882 106.353 66.6807 106.353 80.9734C106.353 95.2605 94.7605 106.853 80.4687 106.853C66.1751 106.853 54.5882 95.2605 54.5882 80.9734C54.5882 66.6807 66.1741 55.0882 80.4687 55.0882ZM79.0588 132.265C49.9529 132.265 26.3529 108.668 26.3529 79.5588C26.3529 50.4501 49.9529 26.8529 79.0588 26.8529C108.165 26.8529 131.765 50.4501 131.765 79.5588C131.765 108.668 108.165 132.265 79.0588 132.265ZM80.0019 0.5C35.8212 0.5 0 36.3193 0 80.5019C0 124.681 35.8212 160.5 80.0019 160.5C124.184 160.5 160 124.681 160 80.5019C160 36.3193 124.184 0.5 80.0019 0.5Z" fill="#BA0000"/>
</g>
</g>
<defs>
<clipPath id="clip0_3_574">
<rect width="200" height="160" fill="white" transform="translate(0 0.5)"/>
</clipPath>
<clipPath id="clip1_3_574">
<rect width="160" height="160" fill="white" transform="translate(0 0.5)"/>
</clipPath>
</defs>
</svg>
