<svg width="10" height="11" viewBox="0 0 10 11" fill="none" xmlns="http://www.w3.org/2000/svg">
<g clip-path="url(#clip0_3_651)">
<path fill-rule="evenodd" clip-rule="evenodd" d="M5.0247 5.64965L1.93135 2.55653C1.89031 2.51543 1.83465 2.4923 1.77657 2.49222C1.71849 2.49214 1.66276 2.51511 1.6216 2.55609C1.60121 2.57641 1.58503 2.60056 1.57401 2.62716C1.56299 2.65375 1.55733 2.68227 1.55737 2.71105C1.55741 2.73984 1.56315 2.76834 1.57425 2.79491C1.58535 2.82147 1.60159 2.84558 1.62204 2.86584L4.71517 5.95896L1.62204 9.05274C1.58101 9.09377 1.55793 9.1494 1.55785 9.20742C1.55776 9.26544 1.58069 9.32113 1.6216 9.36228C1.64191 9.38269 1.66605 9.39888 1.69264 9.40992C1.71922 9.42096 1.74773 9.42664 1.77652 9.42662C1.80531 9.4266 1.83381 9.42088 1.86039 9.4098C1.88696 9.39872 1.91108 9.3825 1.93135 9.36206L5.02448 6.26871L8.11804 9.36184C8.13835 9.38215 8.16246 9.39826 8.189 9.40925C8.21553 9.42024 8.24397 9.4259 8.2727 9.4259C8.30142 9.4259 8.32986 9.42024 8.3564 9.40925C8.38293 9.39826 8.40704 9.38215 8.42735 9.36184C8.44766 9.34153 8.46377 9.31742 8.47476 9.29088C8.48576 9.26435 8.49141 9.2359 8.49141 9.20718C8.49141 9.17846 8.48576 9.15002 8.47476 9.12348C8.46377 9.09695 8.44766 9.07284 8.42735 9.05253L5.33401 5.9594L8.42713 2.86606C8.51267 2.78075 8.5131 2.64184 8.42757 2.55631C8.40726 2.53595 8.38312 2.5198 8.35654 2.50879C8.32997 2.49779 8.30148 2.49215 8.27271 2.49219C8.24395 2.49223 8.21548 2.49795 8.18894 2.50903C8.16239 2.52011 8.1383 2.53633 8.11804 2.55675L5.0247 5.64987V5.64965Z" fill="white"/>
</g>
<defs>
<clipPath id="clip0_3_651">
<rect width="7" height="7" fill="white" transform="translate(1.5 2.43457)"/>
</clipPath>
</defs>
</svg>
