<svg width="23" height="25" viewBox="0 0 23 25" fill="none" xmlns="http://www.w3.org/2000/svg">
<g clip-path="url(#clip0_3_561)">
<path d="M17.255 10.5437C17.255 7.56093 14.6819 5.15312 11.505 5.15312C8.32814 5.15312 5.75502 7.57531 5.75502 10.5437C5.75502 10.5437 5.35611 15.8337 11.505 20.9656C17.6503 15.8481 17.255 10.5437 17.255 10.5437Z" stroke="#C2C6CA" stroke-width="1.23214" stroke-miterlimit="10"/>
<path d="M11.5049 13.0594C11.0785 13.0594 10.6616 12.9329 10.307 12.696C9.95243 12.4591 9.67602 12.1223 9.51288 11.7282C9.34966 11.3343 9.30695 10.9007 9.39016 10.4825C9.47337 10.0642 9.67873 9.68002 9.98028 9.37843C10.2818 9.07687 10.666 8.87151 11.0843 8.78831C11.5025 8.7051 11.9361 8.74781 12.3301 8.91101C12.7241 9.07421 13.0609 9.35058 13.2978 9.70515C13.5348 10.0598 13.6612 10.4766 13.6612 10.9031C13.6612 11.475 13.4341 12.0235 13.0297 12.4279C12.6253 12.8322 12.0768 13.0594 11.5049 13.0594Z" stroke="#C2C6CA" stroke-width="1.23214" stroke-miterlimit="10"/>
</g>
<defs>
<clipPath id="clip0_3_561">
<rect width="23" height="24" fill="white" transform="translate(0.00500488 0.699997)"/>
</clipPath>
</defs>
</svg>
