<svg width="960" height="58" viewBox="0 0 960 58" fill="none" xmlns="http://www.w3.org/2000/svg">
<g clip-path="url(#clip0_3_527)">
<g clip-path="url(#clip1_3_527)">
<path d="M27.501 0.830078C17.835 0.830078 10 8.66508 10 18.3281C10 27.9931 17.835 35.8311 27.501 35.8311C37.168 35.8311 45 27.9931 45 18.3281C45 8.66508 37.168 0.830078 27.501 0.830078ZM27.501 29.7211C21.209 29.7211 16.11 24.6221 16.11 18.3281C16.11 12.0391 21.209 6.93708 27.501 6.93708C33.791 6.93708 38.894 12.0391 38.894 18.3281C38.894 24.6221 33.791 29.7211 27.501 29.7211ZM33.225 18.3311C33.225 21.4911 30.661 24.0541 27.501 24.0541C24.341 24.0541 21.778 21.4911 21.778 18.3311C21.778 15.1701 24.342 12.6081 27.501 12.6081C30.66 12.6081 33.225 15.1701 33.225 18.3311Z" fill="white"/>
</g>
</g>
<defs>
<clipPath id="clip0_3_527">
<rect width="960" height="57" fill="white" transform="translate(0 0.830078)"/>
</clipPath>
<clipPath id="clip1_3_527">
<rect width="35" height="35" fill="white" transform="translate(10 0.830078)"/>
</clipPath>
</defs>
</svg>
