<svg width="55" height="55" viewBox="0 0 55 55" fill="none" xmlns="http://www.w3.org/2000/svg">
<g clip-path="url(#clip0_3_586)">
<path d="M17.4999 35.5C17.4999 35.5 5.9787 30.584 5.9787 21.9792V21.3655C6.03392 19.8559 6.51506 18.4062 7.35139 17.2297C8.18783 16.0531 9.33535 15.2118 10.6251 14.8296C11.915 14.4473 13.2788 14.5443 14.5165 15.1062C15.754 15.6681 16.7997 16.6652 17.4999 17.951" stroke="#3D3935" stroke-width="1.65" stroke-linecap="round" stroke-linejoin="round"/>
<path d="M17.5 35.5C17.5 35.5 29.0211 30.584 29.0211 21.9792V21.3655C28.966 19.8559 28.4848 18.4062 27.6484 17.2297C26.8119 16.0531 25.6645 15.2118 24.3747 14.8296C23.0849 14.4473 21.7209 14.5443 20.4834 15.1062C19.2459 15.6681 18.2002 16.6652 17.5 17.951" stroke="#3D3935" stroke-width="1.65" stroke-linecap="round" stroke-linejoin="round"/>
</g>
<defs>
<clipPath id="clip0_3_586">
<rect width="55" height="55" fill="white"/>
</clipPath>
</defs>
</svg>
