<svg width="41" height="41" viewBox="0 0 41 41" fill="none" xmlns="http://www.w3.org/2000/svg">
<g clip-path="url(#clip0_3_430)">
<g clip-path="url(#clip1_3_430)">
<g clip-path="url(#clip2_3_430)">
<path d="M20.6 0.97998C9.60004 0.97998 0.600037 9.97998 0.600037 20.98C0.600037 31.98 9.60004 40.98 20.6 40.98C31.6 40.98 40.6 31.98 40.6 20.98C40.6 9.97998 31.6 0.97998 20.6 0.97998ZM30.6 16.28V18.98C29.3 18.98 28.1 18.78 26.9 18.28C26.1 17.98 25.4 17.58 24.8 17.08V25.38C24.8 27.28 24 28.98 22.7 30.38C21.6 31.48 20.2 32.18 18.7 32.38C18.3 32.48 18 32.48 17.6 32.48C16 32.48 14.5 31.98 13.2 30.98C13 30.78 12.7 30.58 12.5 30.38C11 28.98 10.3 26.98 10.4 24.98C10.5 23.38 11.1 21.88 12.2 20.78C13.6 19.28 15.5 18.38 17.6 18.38C18 18.38 18.3 18.38 18.7 18.48V19.48V22.28C18.5 21.98 18.1 21.98 17.7 21.98C15.8 21.98 14.3 23.48 14.3 25.38C14.3 26.58 15 27.68 15.9 28.18C16.4 28.48 16.9 28.58 17.4 28.68C17.8 28.68 18.3 28.68 18.6 28.48C19.9 28.08 20.9 26.78 20.9 25.28V19.68V9.57998H24.6C24.6 9.97998 24.6 10.28 24.7 10.68C25 12.08 25.8 13.28 26.9 14.18C27.9 14.88 29.1 15.38 30.4 15.38V16.28H30.6Z" fill="white"/>
</g>
</g>
</g>
<defs>
<clipPath id="clip0_3_430">
<rect width="40" height="40" fill="white" transform="translate(0.600037 0.97998)"/>
</clipPath>
<clipPath id="clip1_3_430">
<rect width="40" height="40" fill="white" transform="translate(0.600037 0.97998)"/>
</clipPath>
<clipPath id="clip2_3_430">
<rect width="40" height="40" fill="white" transform="translate(0.600037 0.97998)"/>
</clipPath>
</defs>
</svg>
